<svg width="512" height="512" viewBox="0 0 512 512" fill="none" xmlns="http://www.w3.org/2000/svg">
<rect width="512" height="512" fill="black"/>
<path d="M58.638 322.644C52.1504 313.379 54.4021 300.608 63.6673 294.121L141.956 239.302C151.222 232.815 163.992 235.066 170.48 244.332V244.332C176.967 253.597 174.715 266.367 165.45 272.855L87.161 327.673C77.8958 334.161 65.1256 331.909 58.638 322.644V322.644Z" fill="white"/>
<path d="M58.3954 188.581C64.883 179.316 77.6532 177.064 86.9185 183.552L165.208 238.37C174.473 244.858 176.725 257.628 170.237 266.893V266.893C163.749 276.158 150.979 278.41 141.714 271.923L63.4248 217.104C54.1595 210.616 51.9078 197.846 58.3954 188.581V188.581Z" fill="white"/>
<path d="M305.633 322.644C312.121 313.379 309.869 300.608 300.604 294.121L222.315 239.302C213.049 232.815 200.279 235.066 193.792 244.332V244.332C187.304 253.597 189.556 266.367 198.821 272.855L277.11 327.673C286.375 334.161 299.146 331.909 305.633 322.644V322.644Z" fill="white"/>
<path d="M305.876 188.581C299.388 179.316 286.618 177.064 277.353 183.552L199.064 238.37C189.798 244.858 187.547 257.628 194.034 266.893V266.893C200.522 276.158 213.292 278.41 222.557 271.923L300.846 217.104C310.112 210.616 312.363 197.846 305.876 188.581V188.581Z" fill="white"/>
<path d="M312.508 247.745C306.02 238.48 293.25 236.228 283.985 242.716L252.296 264.904C243.031 271.392 240.779 284.162 247.267 293.427V293.427C253.755 302.692 266.525 304.944 275.79 298.457L307.479 276.268C316.744 269.78 318.996 257.01 312.508 247.745V247.745Z" fill="white"/>
<path d="M447.855 322.644C454.343 313.379 452.091 300.608 442.826 294.121L364.537 239.302C355.272 232.815 342.501 235.066 336.014 244.332V244.332C329.526 253.597 331.778 266.367 341.043 272.855L419.332 327.673C428.598 334.161 441.368 331.909 447.855 322.644V322.644Z" fill="white"/>
<path d="M448.098 188.581C441.61 179.316 428.84 177.064 419.575 183.552L341.286 238.37C332.021 244.858 329.769 257.628 336.256 266.893V266.893C342.744 276.158 355.514 278.41 364.78 271.923L443.069 217.104C452.334 210.616 454.586 197.846 448.098 188.581V188.581Z" fill="white"/>
<path d="M454.73 247.745C448.243 238.48 435.472 236.228 426.207 242.716L394.519 264.904C385.253 271.392 383.002 284.162 389.489 293.427V293.427C395.977 302.692 408.747 304.944 418.012 298.457L449.701 276.268C458.966 269.78 461.218 257.01 454.73 247.745V247.745Z" fill="white"/>
</svg>
